<?xml version="1.0" encoding="utf-8"?>
<!-- Generator: Adobe Illustrator 24.0.3, SVG Export Plug-In . SVG Version: 6.00 Build 0)  -->
<svg version="1.0" id="Слой_1" xmlns="http://www.w3.org/2000/svg" xmlns:xlink="http://www.w3.org/1999/xlink" x="0px" y="0px"
	 viewBox="0 0 180 234" style="enable-background:new 0 0 180 234;" xml:space="preserve">
<path style="fill-rule:evenodd;clip-rule:evenodd;fill:#D9D9DE;" d="M0,0h125l55,56v178H0V0z M40.9,84.5l5.7-5.7l8.5,8.5l8.5-8.5
	l5.7,5.7L60.7,93l8.5,8.5l-5.7,5.7L55,98.7l-8.5,8.5l-5.7-5.7l8.5-8.5L40.9,84.5z M110.9,84.5l5.7-5.7l8.5,8.5l8.5-8.5l5.7,5.7
	l-8.5,8.5l8.5,8.5l-5.7,5.7l-8.5-8.5l-8.5,8.5l-5.7-5.7l8.5-8.5L110.9,84.5z M31,158h118v8H73.9c-0.4,4.1-1.5,7.9-3.2,11
	c-2,3.6-5.5,7-10.2,7s-8.2-3.4-10.2-7c-1.7-3-2.8-6.9-3.2-11H31V158z M55.2,166c0.3,2.9,1.1,5.3,2.1,7.1c1.4,2.5,2.7,2.9,3.2,2.9
	s1.8-0.4,3.2-2.9c1-1.8,1.8-4.2,2.1-7.1H55.2z"/>
</svg>
