<svg width="0" height="0" class="hidden">
  <symbol xmlns="http://www.w3.org/2000/svg" viewBox="0 0 9 4.8" id="arrow-down">
    <path d="M0 .7L.6 0l3.9 3.5L8.4 0l.6.7-4.5 4L0 .7z" fill-rule="evenodd" clip-rule="evenodd"></path>
  </symbol>
  <symbol viewBox="0 0 12 20" xmlns="http://www.w3.org/2000/svg" id="arrow-right">
    <path d="M2.18 19.05L.77 17.64 8.4 10 .77 2.36 2.18.95 11.23 10l-9.05 9.05z"></path>
  </symbol>
  <symbol xmlns="http://www.w3.org/2000/svg" viewBox="0 0 17 18" id="comparison">
    <path d="M17 9h-3v9h3V9zM3 4.5H0V18h3V4.5zM10 0H7v18h3V0z"></path>
  </symbol>
  <symbol xmlns="http://www.w3.org/2000/svg" viewBox="0 0 20.2 20.2" id="search">
    <path d="M20.2 18.8l-5.9-5.9C15.4 11.5 16 9.8 16 8c0-1.6-.5-3.1-1.3-4.4-.9-1.3-2.1-2.3-3.6-2.9C9.6 0 8-.2 6.4.2s-3 1.1-4.1 2.2S.5 4.9.2 6.4C-.2 8 0 9.6.6 11.1c.6 1.5 1.6 2.7 2.9 3.6C4.9 15.5 6.4 16 8 16c1.8 0 3.5-.6 4.9-1.7l5.9 5.9 1.4-1.4zM8 14c-1.2 0-2.3-.4-3.3-1-1-.7-1.8-1.6-2.2-2.7C2 9.2 1.9 8 2.1 6.8c.2-1.2.8-2.2 1.6-3.1.8-.8 1.9-1.4 3.1-1.6 1.2-.2 2.4-.1 3.5.4s2 1.2 2.7 2.2c.7 1 1 2.1 1 3.3 0 1.6-.6 3.1-1.8 4.2C11.1 13.4 9.6 14 8 14z"></path>
  </symbol>
  <symbol xmlns="http://www.w3.org/2000/svg" viewBox="0 0 14 20" id="subtract">
    <path d="M5 0h9v20H0V5l5-5zm2 6h4v1H7V6zm4 4V9H3v1h8zm0 2v1H3v-1h8zm-4 4v-1H3v1h4z" fill-rule="evenodd" clip-rule="evenodd"></path>
  </symbol>
  <symbol xmlns="http://www.w3.org/2000/svg" viewBox="0 0 21.3 25.3" id="user">
    <path d="M10.7 10.7c1.1 0 2.1-.3 3-.9.9-.6 1.6-1.4 2-2.4.4-1 .5-2 .3-3.1-.2-1-.7-2-1.5-2.7C13.8.9 12.8.3 11.8.1c-1-.2-2.1-.1-3.1.3s-1.8 1.1-2.4 2c-.6.9-.9 1.9-.9 3 0 1.4.6 2.8 1.6 3.8.9.9 2.3 1.5 3.7 1.5zm10.2 8.2c-2.7-2.7-6.4-4.2-10.3-4.2-3.9 0-7.6 1.5-10.3 4.2l-.3.4v6h21.3v-6l-.4-.4z"></path>
  </symbol>
  <symbol viewBox="0 0 16 14" xmlns="http://www.w3.org/2000/svg" id="burger">
    <path d="M0 0v2h16V0H0zm0 8h16V6H0v2zm0 6h16v-2H0v2z"></path>
  </symbol>
  <symbol xmlns="http://www.w3.org/2000/svg" viewBox="0 0 14.1 14.1" id="close">
    <path d="M12.7 0l1.4 1.4L1.4 14.1 0 12.7 12.7 0z"></path>
    <path d="M0 1.4L1.4 0l12.7 12.7-1.4 1.4L0 1.4z"></path>
  </symbol>
  <symbol xmlns="http://www.w3.org/2000/svg" viewBox="0 0 53.3 53.3" id="smile-positive">
      <path d="M34.7 17.7c-.7 0-1.4.2-2 .6-.6.4-1.1 1-1.3 1.6-.3.7-.3 1.4-.2 2.1.1.7.5 1.3 1 1.8s1.1.8 1.8 1c.7.1 1.4.1 2.1-.2.7-.3 1.2-.7 1.6-1.3.4-.6.6-1.3.6-2 0-.5-.1-.9-.3-1.4-.2-.4-.4-.8-.8-1.2-.3-.3-.7-.6-1.2-.8-.4-.1-.9-.2-1.3-.2zm-16 7.2c.7 0 1.4-.2 2-.6s1.1-1 1.3-1.6c.3-.7.3-1.4.2-2.1-.1-.7-.5-1.3-1-1.8s-1.1-.8-1.8-1c-.7-.1-1.4-.1-2.1.2-.7.3-1.2.7-1.6 1.3-.4.6-.6 1.3-.6 2 0 .5.1.9.3 1.4.2.4.4.8.8 1.2.3.3.7.6 1.2.8.3.1.8.2 1.3.2zm.4 6.6l-3.8 3.8c3 3 7.1 4.7 11.3 4.7S35 38.3 38 35.3l-3.8-3.8c-2 1.9-4.7 3-7.5 3s-5.5-1-7.6-3zM26.7 0c-5.3 0-10.4 1.6-14.8 4.5S4 11.6 2 16.5-.5 26.7.5 31.9c1 5.2 3.6 9.9 7.3 13.7 3.7 3.7 8.5 6.3 13.7 7.3 5.2 1 10.5.5 15.4-1.5s9-5.4 12-9.8c2.9-4.4 4.5-9.5 4.5-14.8 0-3.5-.7-7-2-10.2-1.3-3.2-3.3-6.2-5.8-8.7C43 5.3 40.1 3.4 36.9 2 33.6.7 30.2 0 26.7 0zm0 48c-4.2 0-8.3-1.3-11.9-3.6-3.5-2.3-6.2-5.7-7.9-9.6-1.6-3.9-2-8.2-1.2-12.3.8-4.1 2.9-7.9 5.8-10.9 3-3 6.8-5 10.9-5.8 4.1-.8 8.4-.4 12.3 1.2 3.9 1.6 7.2 4.3 9.6 7.9 2.3 3.5 3.6 7.6 3.6 11.9 0 5.7-2.2 11.1-6.2 15.1s-9.4 6.1-15 6.1z"
      fill="#3ec28f"></path>
  </symbol>
  <symbol xmlns="http://www.w3.org/2000/svg" viewBox="0 0 53.3 53.3" id="smile-negative">
    <path d="M34.7 24.9c.7 0 1.4-.2 2-.6.6-.4 1.1-1 1.3-1.6.3-.7.3-1.4.2-2.1-.1-.7-.5-1.3-1-1.8s-1.1-.8-1.8-1c-.7-.1-1.4-.1-2.1.2-.7.3-1.2.7-1.6 1.3-.4.6-.6 1.3-.6 2 0 .5.1.9.3 1.4.2.4.4.8.8 1.2.3.3.7.6 1.2.8.3.1.8.2 1.3.2zm-16 0c.7 0 1.4-.2 2-.6.6-.4 1.1-1 1.3-1.6.3-.7.3-1.4.2-2.1-.1-.7-.5-1.3-1-1.8s-1.1-.8-1.8-1c-.7-.1-1.4-.1-2.1.2-.7.3-1.2.7-1.6 1.3-.4.6-.6 1.3-.6 2 0 .5.1.9.3 1.4.2.4.4.8.8 1.2.3.3.7.6 1.2.8.3.1.8.2 1.3.2zm8 4.4c-2.8 0-5.5.9-7.7 2.5-2.3 1.6-4 3.9-4.9 6.5l5 1.7c.5-1.6 1.6-3 2.9-3.9s3-1.5 4.7-1.5c1.7 0 3.3.5 4.7 1.5 1.4 1 2.4 2.3 2.9 3.9l5-1.8c-.9-2.6-2.7-4.8-4.9-6.4-2.3-1.6-5-2.5-7.7-2.5zm0-29.3c-5.3 0-10.4 1.6-14.8 4.5S4 11.6 2 16.5-.5 26.7.5 31.9c1 5.2 3.6 9.9 7.3 13.7 3.7 3.7 8.5 6.3 13.7 7.3 5.2 1 10.5.5 15.4-1.5s9-5.4 12-9.8c2.9-4.4 4.5-9.5 4.5-14.8 0-3.5-.7-7-2-10.2-1.3-3.2-3.3-6.2-5.8-8.7C43 5.3 40.1 3.4 36.9 2 33.6.7 30.2 0 26.7 0zm0 48c-4.2 0-8.3-1.3-11.9-3.6-3.5-2.3-6.2-5.7-7.9-9.6-1.6-3.9-2-8.2-1.2-12.3.8-4.1 2.9-7.9 5.8-10.9 3-3 6.8-5 10.9-5.8 4.1-.8 8.4-.4 12.3 1.2 3.9 1.6 7.2 4.3 9.6 7.9 2.3 3.5 3.6 7.6 3.6 11.9 0 5.7-2.2 11.1-6.2 15.1-3.9 3.9-9.4 6.1-15 6.1z"
      fill="#d74853"></path>
  </symbol>
  <symbol viewBox="0 0 14 22" xmlns="http://www.w3.org/2000/svg" id="clip">
    <path d="M9 22a5 5 0 0 1-5-5V8a3 3 0 1 1 6 0v9H8V8a1 1 0 0 0-2 0v9a3 3 0 0 0 6 0V7A5 5 0 0 0 2 7v10H0V7a7 7 0 0 1 14 0v10a5 5 0 0 1-5 5z"></path>
  </symbol>
</svg>