<?xml version="1.0" encoding="utf-8"?>
<!-- Generator: Adobe Illustrator 24.0.3, SVG Export Plug-In . SVG Version: 6.00 Build 0)  -->
<svg version="1.1" id="Слой_1" xmlns="http://www.w3.org/2000/svg" xmlns:xlink="http://www.w3.org/1999/xlink" x="0px" y="0px"
	 viewBox="0 0 84.3 13.6" style="enable-background:new 0 0 84.3 13.6;" xml:space="preserve">
<style type="text/css">
	.st0{fill:#FF9500;}
	.st1{fill:#D9D9DE;}
</style>
<path class="st0" d="M7.1,0l1.7,5.2h5.4L9.9,8.4l1.7,5.2l-4.4-3.2l-4.4,3.2l1.7-5.2L0,5.2h5.4L7.1,0z"/>
<path class="st0" d="M24.6,0l1.7,5.2h5.4l-4.4,3.2l1.7,5.2l-4.4-3.2l-4.4,3.2l1.7-5.2l-4.4-3.2h5.4L24.6,0z"/>
<path class="st0" d="M42.1,0l1.7,5.2h5.4l-4.4,3.2l1.7,5.2l-4.4-3.2l-4.4,3.2l1.7-5.2L35,5.2h5.4L42.1,0z"/>
<path class="st1" d="M59.7,0l1.7,5.2h5.4l-4.4,3.2l1.7,5.2l-4.4-3.2l-4.4,3.2L57,8.4l-4.4-3.2H58L59.7,0z"/>
<path class="st1" d="M77.2,0l1.7,5.2h5.4l-4.4,3.2l1.7,5.2l-4.4-3.2l-4.4,3.2l1.7-5.2l-4.4-3.2h5.4L77.2,0z"/>
</svg>
