<?xml version="1.0" encoding="utf-8"?>
<!-- Generator: Adobe Illustrator 24.0.3, SVG Export Plug-In . SVG Version: 6.00 Build 0)  -->
<svg version="1.0" fill='#fff' xmlns="http://www.w3.org/2000/svg" xmlns:xlink="http://www.w3.org/1999/xlink"
	 viewBox="0 0 48.1 48.1">
<rect x="3.7" y="21.9" transform="matrix(0.7071 -0.7071 0.7071 0.7071 -10.7953 23.6731)" width="39" height="6"/>
<path d="M42.9,0.9c-3.3-1.6-7.5-1-10.2,1.8c-3.5,3.5-3.5,9.2,0,12.7s9.2,3.5,12.7,0
	c2.8-2.8,3.4-6.9,1.8-10.2l-6,6L37,7L42.9,0.9z"/>
<path d="M0.9,42.9c-1.6-3.3-1-7.5,1.8-10.2c3.5-3.5,9.2-3.5,12.7,0s3.5,9.2,0,12.7
	c-2.8,2.8-6.9,3.4-10.2,1.8l6-6L7,37L0.9,42.9z"/>
<path d="M29.5,22l-7.8,7.8l1.4,1.4l0.4-0.4c1-1,2.6-1,3.5,0c1,1,1,2.6,0,3.5l-0.4,0.4
	L37,45c2.1,2.1,5.6,2.1,7.8,0c2.1-2.1,2.1-5.6,0-7.8L34.5,27l-0.4,0.4c-1,1-2.6,1-3.5,0c-1-1-1-2.6,0-3.5l0.4-0.4L29.5,22z
	 M30.7,32.8c-0.4-0.4-0.4-1,0-1.4s1-0.4,1.4,0l9.9,9.9c0.4,0.4,0.4,1,0,1.4s-1,0.4-1.4,0L30.7,32.8z"/>
<path d="M5.9,8.9l20.9,20.9l2.8-2.8L8.7,6.1L8,3.3L3,1.9L1.6,3.3L3,8.2L5.9,8.9z"/>
</svg>
